<?xml version="1.0" encoding="UTF-8" standalone="no"?>
<!-- Created with Inkscape (http://www.inkscape.org/) -->

<svg
   xmlns:dc="http://purl.org/dc/elements/1.1/"
   xmlns:cc="http://creativecommons.org/ns#"
   xmlns:rdf="http://www.w3.org/1999/02/22-rdf-syntax-ns#"
   xmlns:svg="http://www.w3.org/2000/svg"
   xmlns="http://www.w3.org/2000/svg"
   xmlns:xlink="http://www.w3.org/1999/xlink"
   xmlns:sodipodi="http://sodipodi.sourceforge.net/DTD/sodipodi-0.dtd"
   xmlns:inkscape="http://www.inkscape.org/namespaces/inkscape"
   width="150"
   height="124"
   id="svg2"
   version="1.1"
   inkscape:version="0.48.4 r9939"
   sodipodi:docname="loopstream.svg"
   inkscape:export-filename="C:\Users\ed\loopstream.png"
   inkscape:export-xdpi="360"
   inkscape:export-ydpi="360">
  <defs
     id="defs4">
    <linearGradient
       id="linearGradient4593">
      <stop
         style="stop-color:#000000;stop-opacity:1;"
         offset="0"
         id="stop4595" />
      <stop
         id="stop4604"
         offset="0.15000001"
         style="stop-color:#ffffff;stop-opacity:0;" />
      <stop
         id="stop4602"
         offset="0.5"
         style="stop-color:#000000;stop-opacity:0;" />
      <stop
         style="stop-color:#ffffff;stop-opacity:0;"
         offset="0.85000002"
         id="stop4606" />
      <stop
         style="stop-color:#000000;stop-opacity:1;"
         offset="1"
         id="stop4597" />
    </linearGradient>
    <linearGradient
       id="linearGradient3824">
      <stop
         style="stop-color:#ffc847;stop-opacity:1;"
         offset="0"
         id="stop3826" />
      <stop
         id="stop3828"
         offset="0.125"
         style="stop-color:#bd22ff;stop-opacity:1;" />
      <stop
         style="stop-color:#c11ad6;stop-opacity:0.3764706;"
         offset="0.1875"
         id="stop4587" />
      <stop
         id="stop3830"
         offset="0.25"
         style="stop-color:#c513ae;stop-opacity:0.1882353;" />
      <stop
         id="stop3832"
         offset="0.5"
         style="stop-color:#ff077c;stop-opacity:0;" />
      <stop
         style="stop-color:#ff643e;stop-opacity:0.1882353;"
         offset="0.75"
         id="stop3834" />
      <stop
         id="stop4589"
         offset="0.8125"
         style="stop-color:#ff7b2e;stop-opacity:0.50196081;" />
      <stop
         id="stop3836"
         offset="0.875"
         style="stop-color:#ff921f;stop-opacity:1;" />
      <stop
         style="stop-color:#ffc101;stop-opacity:1;"
         offset="1"
         id="stop3838" />
    </linearGradient>
    <linearGradient
       id="linearGradient3816">
      <stop
         id="stop3818"
         offset="0"
         style="stop-color:#f0b1ff;stop-opacity:1;" />
      <stop
         style="stop-color:#ff077c;stop-opacity:1;"
         offset="0.5"
         id="stop3820" />
      <stop
         id="stop3822"
         offset="1"
         style="stop-color:#ffc101;stop-opacity:1;" />
    </linearGradient>
    <linearGradient
       id="linearGradient4576">
      <stop
         id="stop4578"
         offset="0"
         style="stop-color:#8c20e0;stop-opacity:1;" />
      <stop
         style="stop-color:#a819c7;stop-opacity:1;"
         offset="0.125"
         id="stop4590" />
      <stop
         style="stop-color:#c513ae;stop-opacity:0.25098041;"
         offset="0.25"
         id="stop4586" />
      <stop
         style="stop-color:#ff077c;stop-opacity:0.09411765;"
         offset="0.5"
         id="stop4580" />
      <stop
         id="stop4588"
         offset="0.75"
         style="stop-color:#ff643e;stop-opacity:0.25098041;" />
      <stop
         style="stop-color:#ff921f;stop-opacity:1;"
         offset="0.875"
         id="stop4592" />
      <stop
         id="stop4582"
         offset="1"
         style="stop-color:#ffc101;stop-opacity:1;" />
    </linearGradient>
    <pattern
       inkscape:collect="always"
       xlink:href="#pattern5588"
       id="pattern5617"
       patternTransform="matrix(1.0915442,0,0,1.1312513,-99.107742,1010.1687)" />
    <pattern
       inkscape:collect="always"
       xlink:href="#pattern5588"
       id="pattern5615"
       patternTransform="matrix(1.0915442,0,0,1.1312513,-99.107743,1010.1689)" />
    <pattern
       inkscape:collect="always"
       xlink:href="#pattern5588"
       id="pattern5593"
       patternTransform="translate(-83.323873,1014.748)" />
    <linearGradient
       id="linearGradient3815">
      <stop
         style="stop-color:#8c20e0;stop-opacity:1;"
         offset="0"
         id="stop3817" />
      <stop
         id="stop3823"
         offset="0.5"
         style="stop-color:#ff077c;stop-opacity:1;" />
      <stop
         style="stop-color:#ffc101;stop-opacity:1;"
         offset="1"
         id="stop3819" />
    </linearGradient>
    <linearGradient
       id="linearGradient3777">
      <stop
         style="stop-color:#ffffff;stop-opacity:1;"
         offset="0"
         id="stop3779" />
      <stop
         style="stop-color:#c0c0c0;stop-opacity:1;"
         offset="1"
         id="stop3781" />
    </linearGradient>
    <linearGradient
       inkscape:collect="always"
       xlink:href="#linearGradient3815"
       id="linearGradient3821"
       x1="-0.12936525"
       y1="974.9895"
       x2="-0.12954283"
       y2="1029.7638"
       gradientUnits="userSpaceOnUse" />
    <linearGradient
       inkscape:collect="always"
       xlink:href="#linearGradient3815"
       id="linearGradient3832"
       gradientUnits="userSpaceOnUse"
       x1="-0.12936525"
       y1="974.9895"
       x2="-0.12954283"
       y2="1029.7638" />
    <linearGradient
       inkscape:collect="always"
       xlink:href="#linearGradient3815"
       id="linearGradient3834"
       gradientUnits="userSpaceOnUse"
       x1="-0.12936525"
       y1="974.9895"
       x2="-0.12954283"
       y2="1029.7638" />
    <filter
       inkscape:collect="always"
       id="filter3852"
       color-interpolation-filters="sRGB">
      <feGaussianBlur
         inkscape:collect="always"
         stdDeviation="2.1524364"
         id="feGaussianBlur3854" />
    </filter>
    <pattern
       patternUnits="userSpaceOnUse"
       width="19.999998"
       height="20"
       patternTransform="translate(-85.88327,1008.3516)"
       id="pattern5588">
      <path
         id="path5586"
         style="fill:#000000;fill-opacity:1;stroke:none"
         d="M 0,0 0,10 10,0 z M 19.999998,10 10,20 0,20 19.999998,0 z"
         inkscape:connector-curvature="0" />
    </pattern>
    <linearGradient
       inkscape:collect="always"
       xlink:href="#linearGradient3777"
       id="linearGradient5613"
       gradientUnits="userSpaceOnUse"
       gradientTransform="matrix(1.0915442,0,0,0.92008617,-5.3623505,71.129873)"
       x1="-10.136094"
       y1="954.98877"
       x2="-10.131264"
       y2="1089.7577" />
    <linearGradient
       inkscape:collect="always"
       xlink:href="#linearGradient3815"
       id="linearGradient5645"
       x1="-972.79639"
       y1="394.2951"
       x2="-967.01447"
       y2="394.2951"
       gradientUnits="userSpaceOnUse" />
    <linearGradient
       inkscape:collect="always"
       xlink:href="#linearGradient3815"
       id="linearGradient5661"
       x1="52.028324"
       y1="1040.4565"
       x2="52.027283"
       y2="1050.7969"
       gradientUnits="userSpaceOnUse" />
    <linearGradient
       inkscape:collect="always"
       xlink:href="#linearGradient3815"
       id="linearGradient3879"
       x1="-0.1332715"
       y1="1002.3723"
       x2="117.28932"
       y2="1002.3723"
       gradientUnits="userSpaceOnUse" />
    <linearGradient
       inkscape:collect="always"
       xlink:href="#linearGradient3815"
       id="linearGradient4597"
       gradientUnits="userSpaceOnUse"
       x1="-0.1332715"
       y1="1002.3723"
       x2="117.28932"
       y2="1002.3723" />
    <linearGradient
       inkscape:collect="always"
       xlink:href="#linearGradient3815"
       id="linearGradient4599"
       gradientUnits="userSpaceOnUse"
       x1="-0.1332715"
       y1="1002.3723"
       x2="117.28932"
       y2="1002.3723" />
    <linearGradient
       inkscape:collect="always"
       xlink:href="#linearGradient3815"
       id="linearGradient4637"
       gradientUnits="userSpaceOnUse"
       x1="-0.1332715"
       y1="1002.3723"
       x2="117.28932"
       y2="1002.3723" />
    <linearGradient
       inkscape:collect="always"
       xlink:href="#linearGradient3815"
       id="linearGradient4639"
       gradientUnits="userSpaceOnUse"
       x1="-0.1332715"
       y1="1002.3723"
       x2="117.28932"
       y2="1002.3723" />
    <linearGradient
       inkscape:collect="always"
       xlink:href="#linearGradient3824"
       id="linearGradient4584"
       gradientUnits="userSpaceOnUse"
       gradientTransform="matrix(0,0.11018295,0.14605918,0,-90.994949,1052.3828)"
       x1="-0.14543666"
       y1="979.82843"
       x2="117.28932"
       y2="979.85175" />
    <linearGradient
       inkscape:collect="always"
       xlink:href="#linearGradient3816"
       id="linearGradient4596"
       gradientUnits="userSpaceOnUse"
       gradientTransform="matrix(0,0.11018295,0.14605918,0,-90.994949,1052.3828)"
       x1="-0.14543666"
       y1="979.82843"
       x2="117.28932"
       y2="979.85175" />
    <linearGradient
       inkscape:collect="always"
       xlink:href="#linearGradient3815"
       id="linearGradient4598"
       gradientUnits="userSpaceOnUse"
       gradientTransform="matrix(0,0.11018295,0.14605918,0,-90.994949,1052.3828)"
       x1="-0.14543666"
       y1="979.82843"
       x2="117.28932"
       y2="979.85175" />
    <linearGradient
       inkscape:collect="always"
       xlink:href="#linearGradient3815"
       id="linearGradient4610"
       x1="-6.29"
       y1="0.063147709"
       x2="68.713913"
       y2="0.067053959"
       gradientUnits="userSpaceOnUse"
       spreadMethod="reflect" />
    <linearGradient
       inkscape:collect="always"
       xlink:href="#linearGradient3815"
       id="linearGradient4622"
       x1="-0.25"
       y1="89"
       x2="75.003906"
       y2="89.003906"
       gradientUnits="userSpaceOnUse"
       spreadMethod="reflect"
       gradientTransform="matrix(1,0,0,0.1,-16.173271,1036.6516)" />
    <filter
       inkscape:collect="always"
       id="filter3850"
       x="-0.019803856"
       width="1.0396077"
       y="-0.19761525"
       height="1.3952305">
      <feGaussianBlur
         inkscape:collect="always"
         stdDeviation="0.83245806"
         id="feGaussianBlur3852" />
    </filter>
    <filter
       inkscape:collect="always"
       id="filter4583"
       x="-0.251256"
       width="1.502512"
       y="-0.15536002"
       height="1.31072">
      <feGaussianBlur
         inkscape:collect="always"
         stdDeviation="0.83752"
         id="feGaussianBlur4585" />
    </filter>
    <linearGradient
       inkscape:collect="always"
       xlink:href="#linearGradient4593"
       id="linearGradient4600"
       x1="-13.673271"
       y1="955.30151"
       x2="-13.673265"
       y2="1045.3015"
       gradientUnits="userSpaceOnUse" />
  </defs>
  <sodipodi:namedview
     id="base"
     pagecolor="#ffffff"
     bordercolor="#666666"
     borderopacity="1.0"
     inkscape:pageopacity="0.0"
     inkscape:pageshadow="2"
     inkscape:zoom="5.6568542"
     inkscape:cx="54.639546"
     inkscape:cy="60.661119"
     inkscape:document-units="px"
     inkscape:current-layer="layer1"
     showgrid="true"
     inkscape:window-width="1920"
     inkscape:window-height="1137"
     inkscape:window-x="-8"
     inkscape:window-y="-8"
     inkscape:window-maximized="1"
     fit-margin-top="0"
     fit-margin-left="0"
     fit-margin-right="0"
     fit-margin-bottom="0">
    <inkscape:grid
       empspacing="5"
       visible="true"
       enabled="false"
       snapvisiblegridlinesonly="true"
       type="xygrid"
       id="grid3061"
       originx="6.2899996px"
       originy="9.1999807px" />
  </sodipodi:namedview>
  <metadata
     id="metadata7">
    <rdf:RDF>
      <cc:Work
         rdf:about="">
        <dc:format>image/svg+xml</dc:format>
        <dc:type
           rdf:resource="http://purl.org/dc/dcmitype/StillImage" />
        <dc:title />
      </cc:Work>
    </rdf:RDF>
  </metadata>
  <g
     inkscape:label="Layer 1"
     inkscape:groupmode="layer"
     id="layer1"
     transform="translate(16.423271,-949.80157)">
    <rect
       style="fill:url(#linearGradient5613);fill-opacity:1;stroke:none"
       id="rect3775"
       width="150"
       height="124"
       x="-16.423271"
       y="949.80157" />
    <path
       id="path4573"
       style="font-size:medium;font-style:normal;font-variant:normal;font-weight:normal;font-stretch:normal;text-indent:0;text-align:start;text-decoration:none;line-height:normal;letter-spacing:normal;word-spacing:normal;text-transform:none;direction:ltr;block-progression:tb;writing-mode:lr-tb;text-anchor:start;baseline-shift:baseline;opacity:0.5;color:#000000;fill:#000000;fill-opacity:1;stroke:none;stroke-width:9.70609188000000070;marker:none;visibility:visible;display:inline;overflow:visible;enable-background:accumulate;font-family:Sans;-inkscape-font-specification:Sans;filter:url(#filter4583)"
       d="m 51.410731,1062.2637 c -1.6e-5,-1.6862 2.165783,-2.5243 3.984205,-3.4271 0.0046,0 0.0089,-0.7849 0.01344,-0.7849 1.549352,1.1686 4.002343,2.5238 4.002343,4.212 0,1.6883 -1.819312,3.0424 -4.002299,3.0424 -2.182982,0 -3.99767,-1.3561 -3.997686,-3.0424 z m 1.424469,0 c 0,1.0501 1.12647,1.9133 2.573232,1.9133 1.44676,0 2.573241,-0.8632 2.573241,-1.9133 0,-1.05 -1.549585,-1.87 -2.5733,-2.6422 -0.0046,0 -0.009,-0.7849 -0.01344,-0.7849 -0.875838,0.8553 -2.559736,2.3804 -2.559736,3.4271 z m -1.424469,-6.8496 c 0,-1.6883 1.814483,-3.046 3.997701,-3.046 2.18322,0 4.002299,1.3577 4.002299,3.046 0,1.6844 -2.168658,2.5206 -3.987167,3.4225 -0.005,0 -0.01008,0.7859 -0.01519,0.7859 -1.549351,-1.169 -3.997643,-2.5201 -3.997643,-4.2084 z m 1.424469,0 c 0,1.05 1.54975,1.8659 2.573173,2.6376 0.005,0 0.01008,0.7849 0.01519,0.7849 0.881,-0.8598 2.55811,-2.3762 2.55811,-3.4225 0,-1.05 -1.126481,-1.9169 -2.573241,-1.9169 -1.446762,0 -2.573232,0.8669 -2.573232,1.9169 z"
       inkscape:connector-curvature="0" />
    <rect
       style="opacity:0.025;fill:url(#pattern5617);fill-opacity:1;stroke:none"
       id="rect5595"
       width="150"
       height="124"
       x="-16.423271"
       y="949.80157" />
    <rect
       y="949.80157"
       x="-16.423271"
       height="124"
       width="150"
       id="rect5584"
       style="opacity:0.025;fill:url(#pattern5615);fill-opacity:1;stroke:none" />
    <g
       style="fill:#000000;fill-opacity:0.50196078;filter:url(#filter3852)"
       id="g3825"
       transform="translate(0,-2.0007776)">
      <path
         style="font-size:medium;font-style:normal;font-variant:normal;font-weight:normal;font-stretch:normal;text-indent:0;text-align:start;text-decoration:none;line-height:normal;letter-spacing:normal;word-spacing:normal;text-transform:none;direction:ltr;block-progression:tb;writing-mode:lr-tb;text-anchor:start;baseline-shift:baseline;color:#000000;fill:#000000;fill-opacity:0.50196078;stroke:none;stroke-width:9.70609188;marker:none;visibility:visible;display:inline;overflow:visible;enable-background:accumulate;font-family:Sans;-inkscape-font-specification:Sans"
         d="m 27.511362,974.98618 c -15.322733,0 -27.6446335,12.42293 -27.6446335,27.37042 0,14.9475 12.3219005,27.4019 27.6446335,27.4019 15.287435,0 22.876954,-14.8478 31.062138,-27.2983 1.3e-4,-0.034 7.1325,-0.069 7.1325,-0.104 C 55.096625,991.74851 42.834094,974.98618 27.511362,974.98618 z m 0,9.75268 c 9.530081,0 16.934732,10.61043 23.938638,17.61734 0,0.034 7.123689,0.069 7.1235,0.104 -7.803654,6.0318 -21.565185,17.5142 -31.062138,17.5142 -9.530082,0 -17.397338,-7.7125 -17.397338,-17.6178 0,-9.90531 7.867256,-17.61774 17.397338,-17.61774 z"
         id="path3827"
         inkscape:connector-curvature="0"
         sodipodi:nodetypes="sssccssccsss" />
      <path
         style="font-size:medium;font-style:normal;font-variant:normal;font-weight:normal;font-stretch:normal;text-indent:0;text-align:start;text-decoration:none;line-height:normal;letter-spacing:normal;word-spacing:normal;text-transform:none;direction:ltr;block-progression:tb;writing-mode:lr-tb;text-anchor:start;baseline-shift:baseline;color:#000000;fill:#000000;fill-opacity:0.50196078;stroke:none;stroke-width:9.70609188;marker:none;visibility:visible;display:inline;overflow:visible;enable-background:accumulate;font-family:Sans;-inkscape-font-specification:Sans"
         d="m 89.677633,974.98618 c -15.304534,-1.1e-4 -22.910518,14.82812 -31.104133,27.27802 -1.04e-4,0.031 -7.1235,0.061 -7.1235,0.092 10.606142,10.6077 22.9049,27.4022 38.227633,27.4022 15.322737,0 27.611737,-12.456 27.611687,-27.4019 -5e-5,-14.94587 -12.30715,-27.37021 -27.611687,-27.37032 z m 0,9.75268 c 9.530081,0 17.364387,7.71243 17.364387,17.61774 0,9.9053 -7.834306,17.6178 -17.364387,17.6178 -9.530082,0 -16.972141,-10.6093 -23.980633,-17.6182 0,-0.031 -7.123651,-0.062 -7.1235,-0.092 7.762168,-5.99646 21.603593,-17.52534 31.104133,-17.52534 z"
         id="path3829"
         inkscape:connector-curvature="0"
         sodipodi:nodetypes="zccszzsssccs" />
    </g>
    <g
       id="g3043"
       style="fill:url(#linearGradient3821);fill-opacity:1"
       transform="translate(0,-2.0007776)">
      <path
         sodipodi:nodetypes="sssccssccsss"
         inkscape:connector-curvature="0"
         id="path2985"
         d="m 27.511362,974.98618 c -15.322733,0 -27.6446335,12.42293 -27.6446335,27.37042 0,14.9475 12.3219005,27.4019 27.6446335,27.4019 15.287435,0 22.876954,-14.8478 31.062138,-27.2983 1.3e-4,-0.034 7.1325,-0.069 7.1325,-0.104 C 55.096625,991.74851 42.834094,974.98618 27.511362,974.98618 z m 0,9.75268 c 9.530081,0 16.934732,10.61043 23.938638,17.61734 0,0.034 7.123689,0.069 7.1235,0.104 -7.803654,6.0318 -21.565185,17.5142 -31.062138,17.5142 -9.530082,0 -17.397338,-7.7125 -17.397338,-17.6178 0,-9.90531 7.867256,-17.61774 17.397338,-17.61774 z"
         style="font-size:medium;font-style:normal;font-variant:normal;font-weight:normal;font-stretch:normal;text-indent:0;text-align:start;text-decoration:none;line-height:normal;letter-spacing:normal;word-spacing:normal;text-transform:none;direction:ltr;block-progression:tb;writing-mode:lr-tb;text-anchor:start;baseline-shift:baseline;color:#000000;fill:url(#linearGradient3832);fill-opacity:1;stroke:none;stroke-width:9.70609188;marker:none;visibility:visible;display:inline;overflow:visible;enable-background:accumulate;font-family:Sans;-inkscape-font-specification:Sans" />
      <path
         sodipodi:nodetypes="zccszzsssccs"
         inkscape:connector-curvature="0"
         id="path3757"
         d="m 89.677633,974.98618 c -15.304534,-1.1e-4 -22.910518,14.82812 -31.104133,27.27802 -1.04e-4,0.031 -7.1235,0.061 -7.1235,0.092 10.606142,10.6077 22.9049,27.4022 38.227633,27.4022 15.322737,0 27.611737,-12.456 27.611687,-27.4019 -5e-5,-14.94587 -12.30715,-27.37021 -27.611687,-27.37032 z m 0,9.75268 c 9.530081,0 17.364387,7.71243 17.364387,17.61774 0,9.9053 -7.834306,17.6178 -17.364387,17.6178 -9.530082,0 -16.972141,-10.6093 -23.980633,-17.6182 0,-0.031 -7.123651,-0.062 -7.1235,-0.092 7.762168,-5.99646 21.603593,-17.52534 31.104133,-17.52534 z"
         style="font-size:medium;font-style:normal;font-variant:normal;font-weight:normal;font-stretch:normal;text-indent:0;text-align:start;text-decoration:none;line-height:normal;letter-spacing:normal;word-spacing:normal;text-transform:none;direction:ltr;block-progression:tb;writing-mode:lr-tb;text-anchor:start;baseline-shift:baseline;color:#000000;fill:url(#linearGradient3834);fill-opacity:1;stroke:none;stroke-width:9.70609188;marker:none;visibility:visible;display:inline;overflow:visible;enable-background:accumulate;font-family:Sans;-inkscape-font-specification:Sans" />
    </g>
    <rect
       style="opacity:0.66699997;fill:#000000;fill-opacity:1;stroke:none"
       id="rect4612"
       width="150"
       height="28"
       x="-16.423271"
       y="1045.8015" />
    <text
       sodipodi:linespacing="125%"
       id="text3842"
       y="1063.7014"
       x="6.2288885"
       style="font-size:40px;font-style:normal;font-weight:normal;line-height:125%;letter-spacing:0px;word-spacing:0px;fill:#000000;fill-opacity:1;stroke:none;font-family:Sans;filter:url(#filter3850)"
       xml:space="preserve"><tspan
         style="font-size:10px;font-style:normal;font-variant:normal;font-weight:normal;font-stretch:normal;letter-spacing:4px;fill:#000000;fill-opacity:1;font-family:Julius Sans One;-inkscape-font-specification:Julius Sans One"
         y="1063.7014"
         x="6.2288885"
         id="tspan3844"
         sodipodi:role="line"><tspan
   id="tspan3846"
   style="font-size:14px;letter-spacing:4px;fill:#000000;fill-opacity:1">L</tspan>oop<tspan
   id="tspan3848"
   style="font-size:21.29999923999999800px;letter-spacing:4px;fill:#000000;fill-opacity:1"> </tspan>tream</tspan></text>
    <text
       xml:space="preserve"
       style="font-size:40px;font-style:normal;font-weight:normal;line-height:125%;letter-spacing:0px;word-spacing:0px;fill:#cccccc;fill-opacity:1;stroke:none;font-family:Sans"
       x="6.2288885"
       y="1063.7014"
       id="text3863"
       sodipodi:linespacing="125%"><tspan
         sodipodi:role="line"
         id="tspan3865"
         x="6.2288885"
         y="1063.7014"
         style="font-size:10px;font-style:normal;font-variant:normal;font-weight:normal;font-stretch:normal;letter-spacing:4px;fill:#cccccc;fill-opacity:1;font-family:Julius Sans One;-inkscape-font-specification:Julius Sans One"><tspan
   style="font-size:14px;letter-spacing:4px;fill:#cccccc;fill-opacity:1"
   id="tspan3066">L</tspan>oop<tspan
   style="font-size:21.29999923999999800px;letter-spacing:4px;fill:#cccccc;fill-opacity:1"
   id="tspan3064"> </tspan>tream</tspan></text>
    <path
       id="path3065"
       style="fill:#000000;fill-opacity:1;stroke:none"
       d="m -84.323873,1044.248 0,10 10,-10 z m 19.999998,10 -9.999998,10 -10,0 19.999998,-20 z"
       inkscape:connector-curvature="0" />
    <rect
       style="fill:url(#pattern5593);stroke:none"
       width="19.999998"
       height="20"
       x="-83.323875"
       y="1014.748"
       id="rect5591" />
    <path
       inkscape:connector-curvature="0"
       d="m 51.410731,1062.2637 c -1.6e-5,-1.6862 2.165783,-2.5243 3.984205,-3.4271 0.0046,0 0.0089,-0.7849 0.01344,-0.7849 1.549352,1.1686 4.002343,2.5238 4.002343,4.212 0,1.6883 -1.819312,3.0424 -4.002299,3.0424 -2.182982,0 -3.99767,-1.3561 -3.997686,-3.0424 z m 1.424469,0 c 0,1.0501 1.12647,1.9133 2.573232,1.9133 1.44676,0 2.573241,-0.8632 2.573241,-1.9133 0,-1.05 -1.549585,-1.87 -2.5733,-2.6422 -0.0046,0 -0.009,-0.7849 -0.01344,-0.7849 -0.875838,0.8553 -2.559736,2.3804 -2.559736,3.4271 z m -1.424469,-6.8496 c 0,-1.6883 1.814483,-3.046 3.997701,-3.046 2.18322,0 4.002299,1.3577 4.002299,3.046 0,1.6844 -2.168658,2.5206 -3.987167,3.4225 -0.005,0 -0.01008,0.7859 -0.01519,0.7859 -1.549351,-1.169 -3.997643,-2.5201 -3.997643,-4.2084 z m 1.424469,0 c 0,1.05 1.54975,1.8659 2.573173,2.6376 0.005,0 0.01008,0.7849 0.01519,0.7849 0.881,-0.8598 2.55811,-2.3762 2.55811,-3.4225 0,-1.05 -1.126481,-1.9169 -2.573241,-1.9169 -1.446762,0 -2.573232,0.8669 -2.573232,1.9169 z"
       style="font-size:medium;font-style:normal;font-variant:normal;font-weight:normal;font-stretch:normal;text-indent:0;text-align:start;text-decoration:none;line-height:normal;letter-spacing:normal;word-spacing:normal;text-transform:none;direction:ltr;block-progression:tb;writing-mode:lr-tb;text-anchor:start;baseline-shift:baseline;opacity:0.01000001;color:#000000;fill:url(#linearGradient4598);fill-opacity:1;stroke:none;stroke-width:9.70609188;marker:none;visibility:visible;display:inline;overflow:visible;enable-background:accumulate;font-family:Sans;-inkscape-font-specification:Sans"
       id="path3089" />
    <text
       sodipodi:linespacing="125%"
       id="text4619"
       y="1071.6338"
       x="6.2288885"
       style="font-size:40px;font-style:normal;font-weight:normal;line-height:125%;letter-spacing:0px;word-spacing:0px;opacity:0.01000001;fill:#808080;fill-opacity:1;stroke:none;font-family:Sans"
       xml:space="preserve"><tspan
         style="font-size:10px;font-style:normal;font-variant:normal;font-weight:normal;font-stretch:normal;letter-spacing:4px;fill:#808080;fill-opacity:1;font-family:Julius Sans One;-inkscape-font-specification:Julius Sans One"
         y="1071.6338"
         x="6.2288885"
         id="tspan4621"
         sodipodi:role="line"><tspan
   id="tspan4623"
   style="font-size:14px;letter-spacing:4px;fill:#808080;fill-opacity:1">L</tspan>oop<tspan
   id="tspan4625"
   style="font-size:14px;letter-spacing:4px;fill:#808080;fill-opacity:1">S</tspan>tream</tspan></text>
    <path
       id="path4572"
       style="font-size:medium;font-style:normal;font-variant:normal;font-weight:normal;font-stretch:normal;text-indent:0;text-align:start;text-decoration:none;line-height:normal;letter-spacing:normal;word-spacing:normal;text-transform:none;direction:ltr;block-progression:tb;writing-mode:lr-tb;text-anchor:start;baseline-shift:baseline;color:#000000;fill:url(#linearGradient4596);fill-opacity:1.0;stroke:none;stroke-width:9.70609188000000070;marker:none;visibility:visible;display:inline;overflow:visible;enable-background:accumulate;font-family:Sans;-inkscape-font-specification:Sans"
       d="m 57.541984,1063.7637 c 2.618744,-3.3932 -3.96547,-4.0243 -2.147048,-4.9271 0.0046,0 0.0089,-0.7849 0.01344,-0.7849 1.549352,1.1686 4.002343,2.5238 4.002343,4.212 0,1.6883 -1.819312,3.0424 -4.002299,3.0424 -2.182982,0 1.271893,-1.2624 2.133567,-1.5424 z m 0.861056,-2.4686 c -0.961115,6.0812 -4.44137,2.8819 -2.994608,2.8819 1.44676,0 2.573241,-0.8632 2.573241,-1.9133 0,-1.05 -1.549585,-1.87 -2.5733,-2.6422 -0.0046,0 -0.009,-0.7849 -0.01344,-0.7849 -0.875838,0.8553 3.171737,1.4231 3.008104,2.4585 z m -6.992309,-5.881 c 0,-1.6883 1.814483,-3.046 3.997701,-3.046 2.18322,0 -3.174933,1.4681 -2.924359,3.1398 0.397703,2.6531 4.758,2.4268 2.939491,3.3287 -0.005,0 -0.01008,0.7859 -0.01519,0.7859 -1.549351,-1.169 -3.997643,-2.5201 -3.997646,-4.2084 z m 1.424469,0 c 0,1.05 1.54975,1.8659 2.573173,2.6376 0.005,0 -1.64702,-0.4026 -1.641908,-0.4026 -2.76461,-2.3909 -0.727376,-4.3201 0.934156,-5.0162 1.320633,-0.5534 2.154568,0.8643 0.707808,0.8643 -1.446762,0 -2.573232,0.8669 -2.573229,1.9169 z"
       inkscape:connector-curvature="0"
       sodipodi:nodetypes="cccsscsssccssssccssccsss" />
    <path
       id="path4574"
       style="font-size:medium;font-style:normal;font-variant:normal;font-weight:normal;font-stretch:normal;text-indent:0;text-align:start;text-decoration:none;line-height:normal;letter-spacing:normal;word-spacing:normal;text-transform:none;direction:ltr;block-progression:tb;writing-mode:lr-tb;text-anchor:start;baseline-shift:baseline;color:#000000;fill:url(#linearGradient4584);fill-opacity:1.0;stroke:none;stroke-width:9.70609188000000070;marker:none;visibility:visible;display:inline;overflow:visible;enable-background:accumulate;font-family:Sans;-inkscape-font-specification:Sans"
       d="m 51.410731,1062.2637 c -1.6e-5,-1.6862 2.165783,-2.5243 3.984205,-3.4271 0.0046,0 0.0089,-0.7849 0.01344,-0.7849 1.549352,1.1686 4.002343,2.5238 4.002343,4.212 0,1.6883 -1.819312,3.0424 -4.002299,3.0424 -2.182982,0 -3.99767,-1.3561 -3.997686,-3.0424 z m 1.424469,0 c 0,1.0501 1.12647,1.9133 2.573232,1.9133 1.44676,0 2.573241,-0.8632 2.573241,-1.9133 0,-1.05 -1.549585,-1.87 -2.5733,-2.6422 -0.0046,0 -0.009,-0.7849 -0.01344,-0.7849 -0.875838,0.8553 -2.559736,2.3804 -2.559736,3.4271 z m -1.424469,-6.8496 c 0,-1.6883 1.814483,-3.046 3.997701,-3.046 2.18322,0 4.002299,1.3577 4.002299,3.046 0,1.6844 -2.168658,2.5206 -3.987167,3.4225 -0.005,0 -0.01008,0.7859 -0.01519,0.7859 -1.549351,-1.169 -3.997643,-2.5201 -3.997643,-4.2084 z m 1.424469,0 c 0,1.05 1.54975,1.8659 2.573173,2.6376 0.005,0 0.01008,0.7849 0.01519,0.7849 0.881,-0.8598 2.55811,-2.3762 2.55811,-3.4225 0,-1.05 -1.126481,-1.9169 -2.573241,-1.9169 -1.446762,0 -2.573232,0.8669 -2.573232,1.9169 z"
       inkscape:connector-curvature="0" />
    <rect
       style="fill:url(#linearGradient4622);fill-opacity:1;stroke:none"
       id="rect4614"
       width="150.25"
       height="0.5"
       x="-16.423271"
       y="1045.3015" />
    <rect
       style="opacity:0.333;fill:url(#linearGradient4600);fill-opacity:1;stroke:none"
       id="rect4591"
       width="150"
       height="90"
       x="-16.423271"
       y="955.30151" />
  </g>
  <g
     inkscape:groupmode="layer"
     id="layer2"
     inkscape:label="stripes"
     style="display:inline"
     transform="translate(6.2899996,5.1868762)">
    <rect
       style="opacity:0.6460177;fill:#000000;fill-opacity:1;stroke:none"
       id="rect3773"
       width="150"
       height="5"
       x="-6.29"
       y="-5.1868525" />
    <rect
       style="fill:url(#linearGradient4610);fill-opacity:1;stroke:none"
       id="rect4100"
       width="150"
       height="0.5"
       x="-6.29"
       y="-0.18685229" />
  </g>
</svg>
